<svg width="128" height="93" viewBox="0 0 128 93" fill="none" xmlns="http://www.w3.org/2000/svg">
<path d="M39.5893 -27.5992C70.9361 -11.0181 85.5425 22.4025 72.5498 46.9652C59.5572 71.5279 23.7111 78.2613 -7.6357 61.6802C-38.9825 45.099 -53.5889 11.6785 -40.5963 -12.8842C-27.6037 -37.4469 8.24245 -44.1803 39.5893 -27.5992Z" stroke="#E9CA91" stroke-opacity="0.24"/>
<path d="M43.9997 -30.6893C75.3465 -14.1081 89.9529 19.3124 76.9602 43.8751C63.9676 68.4378 28.1215 75.1712 -3.2253 58.5901C-34.5721 42.0089 -49.1785 8.58837 -36.1859 -15.9743C-23.1933 -40.537 12.6529 -47.2704 43.9997 -30.6893Z" stroke="#E9CA91" stroke-opacity="0.24"/>
<path d="M48.4101 -33.7791C79.7569 -17.198 94.3633 16.2226 81.3706 40.7853C68.378 65.348 32.5319 72.0814 1.1851 55.5002C-30.1617 38.9191 -44.7681 5.49852 -31.7755 -19.0642C-18.7829 -43.6269 17.0633 -50.3602 48.4101 -33.7791Z" stroke="#E9CA91" stroke-opacity="0.24"/>
<path d="M52.8207 -36.869C84.1675 -20.2878 98.7739 13.1328 85.7813 37.6955C72.7887 62.2581 36.9426 68.9915 5.59574 52.4104C-25.7511 35.8293 -40.3574 2.40868 -27.3648 -22.154C-14.3722 -46.7167 21.4739 -53.4501 52.8207 -36.869Z" stroke="#E9CA91" stroke-opacity="0.24"/>
<path d="M57.2311 -39.9588C88.5779 -23.3777 103.184 10.0429 90.1917 34.6056C77.1991 59.1683 41.353 65.9017 10.0061 49.3205C-21.3407 32.7394 -35.947 -0.681166 -22.9544 -25.2439C-9.96181 -49.8066 25.8843 -56.5399 57.2311 -39.9588Z" stroke="#E9CA91" stroke-opacity="0.24"/>
<path d="M61.6418 -43.0489C92.9886 -26.4678 107.595 6.95283 94.6023 31.5155C81.6097 56.0782 45.7636 62.8116 14.4168 46.2305C-16.93 29.6493 -31.5364 -3.77125 -18.5438 -28.334C-5.55116 -52.8966 30.2949 -59.63 61.6418 -43.0489Z" stroke="#E9CA91" stroke-opacity="0.24"/>
<path d="M66.0522 -46.1387C97.399 -29.5576 112.005 3.86298 99.0127 28.4257C86.0201 52.9884 50.174 59.7218 18.8272 43.1406C-12.5196 26.5595 -27.126 -6.8611 -14.1334 -31.4238C-1.14076 -55.9865 34.7053 -62.7199 66.0522 -46.1387Z" stroke="#E9CA91" stroke-opacity="0.24"/>
<path d="M70.4626 -49.2286C101.809 -32.6474 116.416 0.773139 103.423 25.3358C90.4305 49.8985 54.5844 56.6319 23.2376 40.0508C-8.10923 23.4696 -22.7156 -9.95094 -9.72298 -34.5136C3.26964 -59.0763 39.1157 -65.8097 70.4626 -49.2286Z" stroke="#E9CA91" stroke-opacity="0.24"/>
</svg>
